<svg width="405" height="184" viewBox="0 0 405 184" fill="none" xmlns="http://www.w3.org/2000/svg">
<path fill-rule="evenodd" clip-rule="evenodd" d="M391.264 50.5647C393.559 49.8263 404.046 47.4146 404.378 34.1039L404.383 33.6218C404.321 23.5126 394.37 15.0544 378.594 15.0544C365.979 15.0544 356.406 21.9564 351.941 32.9684L367.431 37.6635C369.302 33.6371 372.282 29.8518 378.206 29.8518C383.255 29.8518 385.343 33.6079 385.343 35.9819C385.343 38.8004 383.574 43.1723 377.1 43.2851H372.489L367.528 43.2197L365.093 57.5767C366.631 57.4709 370.913 57.5767 371.787 57.5767C377.157 57.5767 382.249 59.6053 382.249 64.3157C382.249 69.4678 378.603 72.7112 372.566 72.7112C366.775 72.7112 362.917 68.4494 362.329 63.4868L345.837 67.2443C347.279 76.7432 356.459 87.3999 372.673 87.3999C391.222 87.3999 401.777 77.6822 401.777 65.2018C401.777 59.7307 397.855 52.316 391.264 50.5647Z" fill="#00205B"/>
<mask id="mask0" mask-type="alpha" maskUnits="userSpaceOnUse" x="0" y="0" width="332" height="184">
<path d="M0 0H331.2V184H0V0Z" fill="white"/>
</mask>
<g mask="url(#mask0)">
<path fill-rule="evenodd" clip-rule="evenodd" d="M252.985 167.274C142.869 167.274 53.6048 133.495 53.6048 91.8163C53.6048 50.143 142.869 16.3604 252.985 16.3604C280.157 16.3604 306.068 18.4225 329.672 22.1502C294.74 8.34302 249.34 0 199.704 0C89.4118 0 -0.00274658 41.1877 -0.00274658 92.0028C-0.00274658 142.814 89.4118 184 199.704 184C250.067 184 296.069 175.416 331.198 161.245C307.178 165.125 280.746 167.274 252.985 167.274Z" fill="#8BC53F"/>
</g>
<path fill-rule="evenodd" clip-rule="evenodd" d="M318.488 42.3425C295.161 40.6301 286.573 60.1911 286.573 60.1911C283.904 46.2845 272.527 42.3425 264.78 42.3425C250.727 42.3425 242 48.1781 235.307 59.3084L237.79 44.653H205.667L189.019 137.582H223.243L230.677 96.7083C234.076 78.2001 235.521 67.7573 245.761 67.7573C249.481 67.7573 252.509 71.4511 252.509 75.6929C252.509 77.6242 251.861 82.2495 251.379 85.3354L242.004 137.582H276.793L284.064 96.7083C287.456 77.429 288.46 67.5481 299.343 67.5481C303.058 67.5481 305 71.069 305 75.8896C305 78.3912 304.673 81.8661 304.029 85.3354L294.655 137.582H329.535L339.877 81.0894C341.17 73.7658 341.655 70.2965 341.655 65.865C341.655 51.2082 331.546 43.3004 318.488 42.3425Z" fill="#00205B"/>
<path fill-rule="evenodd" clip-rule="evenodd" d="M190.454 75.842C183.627 69.4311 177.782 65.6469 170.318 65.6469C157.306 65.6469 146.447 75.9811 146.447 90.5141C146.447 103.122 154.125 111.029 166.066 111.029C172.679 111.029 178.257 109.2 185.932 103.858L180.241 133.86C170.294 136.737 163.97 138 156.081 138C129.419 138 112.072 118.969 112.072 91.1916C112.072 60.2071 134.933 39.3092 165.437 39.3092C175.887 39.3092 186.324 42.6176 195.708 47.3158L190.454 75.842Z" fill="#00205B"/>
</svg>
